<svg xmlns="http://www.w3.org/2000/svg" width="150pt" height="150pt" viewBox="0 0 150 150"><g id="#818486ff"><path fill="#818486" opacity="1.00" d=" M 69.15 0.00 L 79.96 0.00 C 98.18 1.25 115.86 9.30 128.56 22.46 C 141.31 35.27 148.90 52.83 150.00 70.83 L 150.00 78.91 C 149.04 95.61 142.48 111.92 131.38 124.46 C 118.29 139.53 99.02 148.83 79.11 150.00 L 71.07 150.00 C 52.74 148.97 34.86 141.15 21.95 128.06 C 9.13 115.46 1.32 98.09 0.00 80.19 L 0.00 69.99 C 1.23 51.78 9.27 34.10 22.42 21.40 C 34.82 9.00 51.73 1.51 69.15 0.00 M 61.45 5.74 C 45.22 8.93 30.21 18.00 19.93 30.97 C 9.98 43.33 4.33 59.14 4.47 75.03 C 4.36 91.10 10.18 107.09 20.38 119.50 C 33.69 135.99 54.81 146.00 76.04 145.40 C 104.56 145.47 131.60 126.00 141.14 99.22 C 147.32 82.59 146.86 63.57 139.77 47.30 C 132.42 29.89 117.73 15.77 100.05 9.10 C 87.85 4.33 74.30 3.29 61.45 5.74 Z"></path><path fill="#818486" opacity="1.00" d=" M 56.32 48.32 C 67.88 47.93 79.46 48.25 91.03 48.15 C 98.48 47.83 105.12 54.67 105.10 62.04 C 105.14 71.33 105.15 80.63 105.10 89.92 C 105.07 97.28 98.42 104.00 91.01 103.78 C 80.35 103.78 69.69 103.78 59.02 103.78 C 51.55 104.08 44.90 97.38 44.78 89.99 C 44.70 80.67 44.72 71.35 44.77 62.02 C 44.88 55.52 49.89 49.46 56.32 48.32 M 54.44 52.70 C 50.61 54.54 48.16 58.78 48.37 63.00 C 48.41 71.97 48.34 80.93 48.40 89.89 C 48.49 95.35 53.39 100.35 58.91 100.23 C 69.63 100.21 80.35 100.22 91.06 100.22 C 96.52 100.27 101.40 95.38 101.52 89.96 C 101.57 80.68 101.55 71.39 101.53 62.11 C 101.49 56.58 96.51 51.51 90.93 51.64 C 80.62 51.64 70.31 51.68 60.00 51.63 C 58.09 51.58 56.14 51.77 54.44 52.70 Z"></path><path fill="#818486" opacity="1.00" d=" M 72.24 55.18 C 76.30 54.06 81.36 55.50 83.29 59.49 C 85.39 65.43 81.70 73.52 75.02 74.25 C 69.16 73.76 65.48 67.40 66.12 61.92 C 66.14 58.55 69.07 55.80 72.24 55.18 M 71.33 59.39 C 67.63 62.32 70.25 68.69 73.99 70.46 C 78.34 71.00 80.75 65.53 80.27 61.86 C 79.42 58.05 74.14 57.73 71.33 59.39 Z"></path><path fill="#818486" opacity="1.00" d=" M 78.90 74.84 C 81.83 73.21 85.75 74.96 87.17 77.85 C 89.51 82.28 90.72 87.28 91.11 92.26 C 85.72 94.57 79.73 94.74 73.95 94.82 C 69.20 94.63 64.34 94.56 59.76 93.16 C 59.54 92.88 59.08 92.31 58.85 92.03 C 59.23 87.76 59.87 83.38 61.72 79.47 C 63.28 76.53 66.58 73.94 70.06 74.55 C 73.11 75.29 72.88 79.52 75.25 80.90 C 76.52 78.92 77.20 76.53 78.90 74.84 M 62.57 90.25 C 70.77 91.61 79.17 91.57 87.35 90.01 C 86.00 85.74 86.01 79.21 81.00 77.58 C 79.69 80.10 78.62 82.75 77.10 85.16 C 76.28 86.82 73.67 86.82 72.89 85.13 C 71.41 82.76 70.33 80.18 68.99 77.74 C 63.81 79.54 63.41 85.68 62.57 90.25 Z"></path></g></svg>